<svg xmlns="http://www.w3.org/2000/svg" width="33" height="30" viewBox="0 0 33 30" fill="none"><g clip-path="url(#clip0_59_894)"><path d="M13.8992 1.32258V6.70891C13.8992 7.43962 13.3069 8.03235 12.5757 8.03235C9.96899 8.03235 8.55182 10.7051 8.35552 15.9809H12.5757C13.3069 15.9809 13.8992 16.5729 13.8992 17.3045V28.6774C13.8992 29.4081 13.3069 30 12.5757 30H1.32343C0.592302 30 0 29.4081 0 28.6774V17.3045C0 14.7754 0.254758 12.4533 0.756735 10.4034C1.2718 8.30304 2.06196 6.46596 3.10461 4.94339C4.17826 3.37956 5.52147 2.15157 7.09695 1.29655C8.68268 0.436545 10.526 0 12.5766 0C13.3069 0 13.8992 0.592446 13.8992 1.32258ZM30.9587 0C28.9089 0 27.0647 0.436403 25.4791 1.29655C23.9034 2.15157 22.5602 3.37956 21.4867 4.94339C20.4434 6.46681 19.6538 8.30304 19.138 10.405C18.636 12.4547 18.3821 14.7753 18.3821 17.3043V28.6773C18.3821 29.408 18.9746 29.9999 19.7047 29.9999H30.958C31.6882 29.9999 32.2804 29.408 32.2804 28.6773V17.3043C32.2804 16.5728 31.6882 15.9808 30.958 15.9808H26.7971C26.9908 10.705 28.3882 8.0322 30.958 8.0322C31.6882 8.0322 32.2804 7.43948 32.2804 6.70878V1.32258C32.2813 0.592446 31.689 0 30.9587 0Z" fill="#E4E4E4"></path></g><defs><clipPath id="clip0_59_894"><rect width="33" height="30" fill="white"></rect></clipPath></defs></svg>