<svg xmlns="http://www.w3.org/2000/svg" width="33" height="30" viewBox="0 0 33 30" fill="none"><g clip-path="url(#clip0_59_887)"><path d="M30.8571 0.0583496H19.6535C18.9261 0.0583496 18.3358 0.648066 18.3358 1.376V12.6986C18.3358 13.4264 18.9251 14.0162 19.6535 14.0162H23.8549C23.6599 19.269 22.2484 21.9297 19.6535 21.9297C18.9261 21.9297 18.3358 22.5194 18.3358 23.2473V28.6101C18.3358 29.3377 18.9251 29.9278 19.6535 29.9278C21.6944 29.9278 23.5301 29.4924 25.1089 28.637C26.6768 27.7848 28.0146 26.5638 29.0827 25.0051C30.1207 23.4896 30.9077 21.6614 31.4208 19.5691C31.9204 17.5282 32.174 15.217 32.174 12.6986V1.37586C32.1748 0.648066 31.5838 0.0583496 30.8571 0.0583496ZM12.555 0.0583496H1.35135C0.624683 0.0583496 0.0345459 0.648066 0.0345459 1.376V12.6986C0.0345459 13.4264 0.624683 14.0162 1.35135 14.0162H5.49409C5.30077 19.269 3.90961 21.9297 1.35135 21.9297C0.624683 21.9297 0.0345459 22.5194 0.0345459 23.2473V28.6101C0.0345459 29.3377 0.624683 29.9278 1.35135 29.9278C3.39213 29.9278 5.22868 29.4924 6.80749 28.637C8.3761 27.7848 9.71302 26.5638 10.7811 25.0051C11.8209 23.4896 12.6076 21.6614 13.1209 19.5683C13.6198 17.5282 13.8728 15.217 13.8728 12.6996V1.37586C13.8726 0.648066 13.2825 0.0583496 12.555 0.0583496Z" fill="#E4E4E4"></path></g><defs><clipPath id="clip0_59_887"><rect width="33" height="30" fill="white"></rect></clipPath></defs></svg>