<svg width="30" height="30" viewBox="0 0 30 30" fill="none" xmlns="http://www.w3.org/2000/svg">
<path d="M12 8.5C12.0002 9.34178 11.697 10.1554 11.146 10.7918C10.5951 11.4282 9.83315 11.8447 9 11.965V18C9 18.7956 9.31607 19.5587 9.87868 20.1213C10.4413 20.6839 11.2044 21 12 21H14.69L13.72 20.03C13.6463 19.9613 13.5872 19.8785 13.5462 19.7865C13.5052 19.6945 13.4832 19.5952 13.4814 19.4945C13.4796 19.3938 13.4982 19.2938 13.5359 19.2004C13.5736 19.107 13.6297 19.0222 13.701 18.951C13.7722 18.8797 13.857 18.8236 13.9504 18.7859C14.0438 18.7482 14.1438 18.7296 14.2445 18.7314C14.3452 18.7332 14.4445 18.7552 14.5365 18.7962C14.6285 18.8372 14.7113 18.8963 14.78 18.97L17.03 21.22C17.1705 21.3606 17.2493 21.5512 17.2493 21.75C17.2493 21.9488 17.1705 22.1394 17.03 22.28L14.78 24.53C14.7113 24.6037 14.6285 24.6628 14.5365 24.7038C14.4445 24.7448 14.3452 24.7668 14.2445 24.7686C14.1438 24.7704 14.0438 24.7518 13.9504 24.7141C13.857 24.6764 13.7722 24.6203 13.701 24.549C13.6297 24.4778 13.5736 24.393 13.5359 24.2996C13.4982 24.2062 13.4796 24.1062 13.4814 24.0055C13.4832 23.9048 13.5052 23.8055 13.5462 23.7135C13.5872 23.6215 13.6463 23.5387 13.72 23.47L14.69 22.5H12C10.8065 22.5 9.66193 22.0259 8.81802 21.182C7.97411 20.3381 7.5 19.1935 7.5 18V11.855C6.69633 11.6128 6.00639 11.09 5.55584 10.3817C5.10529 9.67353 4.9241 8.82705 5.04527 7.99647C5.16643 7.16588 5.58189 6.40644 6.21599 5.85646C6.85008 5.30647 7.66062 5.00254 8.5 5C9.42826 5 10.3185 5.36875 10.9749 6.02513C11.6313 6.6815 12 7.57174 12 8.5ZM10.5 8.5C10.5 7.96957 10.2893 7.46086 9.91421 7.08579C9.53914 6.71071 9.03043 6.5 8.5 6.5C7.96957 6.5 7.46086 6.71071 7.08579 7.08579C6.71071 7.46086 6.5 7.96957 6.5 8.5C6.5 9.03043 6.71071 9.53914 7.08579 9.91421C7.46086 10.2893 7.96957 10.5 8.5 10.5C9.03043 10.5 9.53914 10.2893 9.91421 9.91421C10.2893 9.53914 10.5 9.03043 10.5 8.5ZM25 21.5C24.9998 22.1708 24.8069 22.8275 24.4441 23.3918C24.0813 23.9561 23.564 24.4042 22.9538 24.6829C22.3435 24.9615 21.6661 25.0589 21.0021 24.9635C20.338 24.8681 19.7154 24.5838 19.2084 24.1446C18.7013 23.7053 18.3312 23.1296 18.142 22.486C17.9529 21.8424 17.9527 21.1579 18.1414 20.5142C18.3302 19.8705 18.7 19.2945 19.2068 18.855C19.7136 18.4155 20.336 18.1308 21 18.035V12C21 11.2044 20.6839 10.4413 20.1213 9.87868C19.5587 9.31607 18.7957 9 18 9H16.06L17.03 9.97C17.1625 10.1122 17.2346 10.3002 17.2312 10.4945C17.2277 10.6888 17.149 10.8742 17.0116 11.0116C16.8742 11.149 16.6888 11.2277 16.4945 11.2312C16.3002 11.2346 16.1122 11.1625 15.97 11.03L13.72 8.78C13.5796 8.63937 13.5007 8.44875 13.5007 8.25C13.5007 8.05125 13.5796 7.86063 13.72 7.72L15.97 5.47C16.0387 5.39631 16.1215 5.33721 16.2135 5.29622C16.3055 5.25523 16.4048 5.23319 16.5055 5.23141C16.6062 5.22963 16.7062 5.24816 16.7996 5.28588C16.893 5.3236 16.9778 5.37974 17.049 5.45096C17.1203 5.52218 17.1764 5.60701 17.2141 5.7004C17.2518 5.79379 17.2704 5.89382 17.2686 5.99452C17.2668 6.09523 17.2448 6.19454 17.2038 6.28654C17.1628 6.37854 17.1037 6.46134 17.03 6.53L16.06 7.5H18C19.1935 7.5 20.3381 7.97411 21.182 8.81802C22.0259 9.66193 22.5 10.8065 22.5 12V18.145C23.946 18.575 25 19.915 25 21.5ZM23.5 21.5C23.5 20.9696 23.2893 20.4609 22.9142 20.0858C22.5391 19.7107 22.0304 19.5 21.5 19.5C20.9696 19.5 20.4609 19.7107 20.0858 20.0858C19.7107 20.4609 19.5 20.9696 19.5 21.5C19.5 22.0304 19.7107 22.5391 20.0858 22.9142C20.4609 23.2893 20.9696 23.5 21.5 23.5C22.0304 23.5 22.5391 23.2893 22.9142 22.9142C23.2893 22.5391 23.5 22.0304 23.5 21.5Z" fill="#464646" stroke="#464646" stroke-width="0.3"/>
</svg>
