<svg width="30" height="30" viewBox="0 0 30 30" fill="none" xmlns="http://www.w3.org/2000/svg">
<path d="M7.41667 22.7041C7.41667 20.0899 9.25544 17.8632 11.7544 17.4512L11.9795 17.4141C13.9805 17.0842 16.0195 17.0842 18.0205 17.4141L18.2456 17.4512C20.7446 17.8632 22.5833 20.0899 22.5833 22.7041C22.5833 23.834 21.6966 24.75 20.6029 24.75H9.39714C8.30336 24.75 7.41667 23.834 7.41667 22.7041Z" stroke="#464646" stroke-width="2"/>
<path d="M19.4236 9.51563C19.4236 11.8715 17.4431 13.7813 15 13.7813C12.5569 13.7813 10.5764 11.8715 10.5764 9.51563C10.5764 7.15979 12.5569 5.25 15 5.25C17.4431 5.25 19.4236 7.15979 19.4236 9.51563Z" stroke="#464646" stroke-width="2"/>
</svg>
